<svg version="1.1" id="Layer_1" xmlns="http://www.w3.org/2000/svg" xmlns:xlink="http://www.w3.org/1999/xlink" x="0px" y="0px"
	 viewBox="0 0 629.9 1340" style="enable-background:new 0 0 629.9 1340;" xml:space="preserve">
<g>
	<rect x="114.2" y="633" style="fill:none;" width="512.4" height="114.7"/>
	<text transform="matrix(1 0 0 1 114.2078 654.9465)"><tspan x="0" y="0" style="fill:#FFFFFF; font-family: 'Titillium Web', sans-serif; font-weight:100; font-size:30px;">Reimagining a money transfer company </tspan><tspan x="0" y="32" style="fill:#FFFFFF; font-family: 'Titillium Web', sans-serif; font-weight:100; font-size:30px;">and reinventing it to remain relevant.</tspan></text>
</g>
<g>
	<rect x="68.9" y="780.8" style="fill:none;" width="557.9" height="362.9"/>
	<text transform="matrix(1 0 0 1 68.8857 802.7219)"><tspan x="0" y="0" style="fill:#FFFFFF; font-family: 'Titillium Web', sans-serif; font-weight:100; font-size:30px;">Utilizing design:success’ proprietary </tspan><tspan x="0" y="32" style="fill:#FFFFFF; font-family: 'Titillium Web', sans-serif; font-weight:100; font-size:30px;">processes we embarked on of the largest </tspan><tspan x="0" y="64" style="fill:#FFFFFF; font-family: 'Titillium Web', sans-serif; font-weight:100; font-size:30px;">and most in-depth insight studies ever </tspan><tspan x="0" y="96" style="fill:#FFFFFF; font-family: 'Titillium Web', sans-serif; font-weight:100; font-size:30px;">undertaken; covering thousands of </tspan><tspan x="0" y="128" style="fill:#FFFFFF; font-family: 'Titillium Web', sans-serif; font-weight:100; font-size:30px;">customers around the world uncovering </tspan><tspan x="0" y="160" style="fill:#FFFFFF; font-family: 'Titillium Web', sans-serif; font-weight:100; font-size:30px;">current perception, visions and wishes. </tspan><tspan x="0" y="192" style="fill:#FFFFFF; font-family: 'Titillium Web', sans-serif; font-weight:100; font-size:30px;">(Re)designing and (re)inventing products, </tspan><tspan x="0" y="224" style="fill:#FFFFFF; font-family: 'Titillium Web', sans-serif; font-weight:100; font-size:30px;">services, positioning, brand and </tspan><tspan x="0" y="256" style="fill:#FFFFFF; font-family: 'Titillium Web', sans-serif; font-weight:100; font-size:30px;">communication towards consumers, agents </tspan><tspan x="0" y="288" style="fill:#FFFFFF; font-family: 'Titillium Web', sans-serif; font-weight:100; font-size:30px;">and shareholders. </tspan></text>
</g>
<g>
	<rect x="23.6" y="1173.3" style="fill:none;" width="599.2" height="170.1"/>
	<text transform="matrix(1 0 0 1 23.5728 1195.1526)"><tspan x="0" y="0" style="fill:#FFFFFF; font-family: 'Titillium Web', sans-serif; font-weight:100; font-size:30px;">Transformative innovation from the core, - </tspan><tspan x="0" y="32" style="fill:#FFFFFF; font-family: 'Titillium Web', sans-serif; font-weight:100; font-size:30px;">covering everything from product innovations, </tspan><tspan x="0" y="64" style="fill:#FFFFFF; font-family: 'Titillium Web', sans-serif; font-weight:100; font-size:30px;">physical transaction spaces, digital/IT solutions </tspan><tspan x="0" y="96" style="fill:#FFFFFF; font-family: 'Titillium Web', sans-serif; font-weight:100; font-size:30px;">to global brand optimization and </tspan><tspan x="0" y="128" style="fill:#FFFFFF; font-family: 'Titillium Web', sans-serif; font-weight:100; font-size:30px;">communication.</tspan></text>
</g>
<g>
	<path style="fill:#FFFFFF;" d="M353.6,473.1c-108.9,0-197.4-88.6-197.4-197.4S244.7,78.3,353.6,78.3
		c108.9,0,197.4,88.6,197.4,197.4S462.4,473.1,353.6,473.1z M353.6,79.3c-108.3,0-196.4,88.1-196.4,196.4
		c0,108.3,88.1,196.4,196.4,196.4S550,384,550,275.7C550,167.4,461.9,79.3,353.6,79.3z"/>
</g>
<g>
	<path style="fill:#FFFFFF;" d="M353.6,539.5c-70.5,0-136.7-27.4-186.5-77.3c-49.8-49.8-77.3-116.1-77.3-186.5S117.2,139,167,89.2
		c49.8-49.8,116.1-77.3,186.5-77.3c70.5,0,136.7,27.4,186.5,77.3c49.8,49.8,77.3,116.1,77.3,186.5S590,412.4,540.1,462.3
		C490.3,512.1,424.1,539.5,353.6,539.5z M353.6,13.2c-70.1,0-136,27.3-185.6,76.9c-49.6,49.6-76.9,115.5-76.9,185.6
		s27.3,136,76.9,185.6c49.6,49.6,115.5,76.9,185.6,76.9s136-27.3,185.6-76.9c49.6-49.6,76.9-115.5,76.9-185.6s-27.3-136-76.9-185.6
		C489.6,40.5,423.7,13.2,353.6,13.2z"/>
</g>
<g>
	<polygon style="fill:#FF3030;" points="91.6,617.1 89.6,617.1 89.6,458 207.8,458 207.8,460 91.6,460 	"/>
</g>
<g>
	<text transform="matrix(1 0 0 1 114.2075 617.0615)" style="fill:#FFFFFF; font-family: 'Titillium Web', sans-serif; font-weight:600; font-size:42px;">challenge</text>
</g>
<g>
	<text transform="matrix(1 0 0 1 72.8481 752.582)" style="fill:#FFFFFF; font-family: 'Titillium Web', sans-serif; font-weight:600; font-size:42px;">solution</text>
</g>
<g>
	<circle style="fill:#FFFFFF;" cx="353.6" cy="275.7" r="145.8"/>
	<path style="fill:#FF3030;" d="M353.6,129.9c-4.5,0-8.9,0.2-13.2,0.6c-2.1,0.6-4.3,1.3-6.3,2c-24,8.3-48.4,25.5-65.6,48.4
		c-14.1,18.8-24.5,40.3-24.5,65.5c0,36.3,28.5,52.4,54,52.4c25.6,0,56.4-13,81.4-36.7c0.6-0.6,1.1-1.1,1.7-1.7h-36.2
		c-7.4,0-12.5-5.6-11.4-13c0.1-0.5,0.5-2.7,0.5-3.1c1.4-7.7,8.5-11.9,16.2-11.9h69.5c7.7,0,12.8,6.3,11.3,14L418.5,316
		c-1.4,7.8-6.8,14-14.5,14h-3.1c-7.4-0.1-12.3-6.6-11-14c1.4-7.7,5.8-32.5,5.8-32.5c-34.2,31.6-74.9,48.7-109.6,49
		c-22.8,0.2-76.6-9.4-76.6-76.2c0-1.1,0-2.3,0.1-3.4c-1.2,7.4-1.8,15.1-1.8,22.8c0,80.5,65.3,145.8,145.8,145.8
		c80.5,0,145.8-65.3,145.8-145.8S434.1,129.9,353.6,129.9z"/>
</g>
<g>
	<text transform="matrix(1 0 0 1 27.5352 1145.0117)" style="fill:#FFFFFF; font-family: 'Titillium Web', sans-serif; font-weight:600; font-size:42px;">result</text>
</g>
<g>
	<polygon style="fill:#FF3030;" points="52.3,752.6 50.3,752.6 50.3,392.8 223.8,392.8 223.8,394.8 52.3,394.8 	"/>
</g>
<g>
	<polygon style="fill:#FF3030;" points="5.8,1142 3.8,1142 3.8,343.3 237.3,343.3 237.3,345.3 5.8,345.3 	"/>
</g>
</svg>
