<svg version="1.1" id="Layer_1" xmlns="http://www.w3.org/2000/svg" xmlns:xlink="http://www.w3.org/1999/xlink" x="0px" y="0px"
	 viewBox="0 0 984 109.6" style="enable-background:new 0 0 984 109.6;" xml:space="preserve">
			<path fill="#FFFFFF" d="M78.7,4.3h-4.4c-4.3,0-6.1,1.3-9.1,6L41.7,48.3L32,10.6c-1.2-4.5-2.5-6.3-7.3-6.3h-3.7
				c-4.8,0-7.9,2.8-8.8,7.9L1.2,73.5c-0.8,4.6,1.3,7,5.3,7h1.7c4.2,0,6.1-2.1,6.8-6.6l8.8-49.6l8.5,33.2c0.7,3.3,1.4,5.6,7.7,5.6
				c5.4,0,6.6-1.9,8.5-5l20.8-34.2l-8.8,49.6c-0.8,4.7,1.3,7,5.2,7h1.8c4.2,0,6-2.2,6.8-6.6l10.9-61.5C86,7.5,83.7,4.3,78.7,4.3
				L78.7,4.3z M116.4,22.3c-19.4,0-31.3,15.8-30.8,33.2c0.6,15.8,11.5,26,27.6,26c19.9,0,31.3-15.9,30.8-33.3
				C143.5,33.4,133.4,22.3,116.4,22.3L116.4,22.3z M113.4,70.7c-9.2,0-14.9-6.6-15.2-15.6c-0.4-11.6,7.2-22,18.2-22
				c8.4,0,15,6.6,15.3,15.7C132,61.1,124.3,70.7,113.4,70.7L113.4,70.7z M187.5,22.3c-8.1,0-14.5,4-18.7,10.7
				c0.4-7.6-3.8-9.9-8.1-9.9c-2,0-3.6,0.5-3.7,0.8l-8.8,49.9c-0.9,5.2,2,6.6,5.7,6.6h1.6c4.1,0,5.8-1.7,6.6-6.6l5.3-30
				c3.8-6.6,8-9.8,14.5-9.8c6.5,0,10.4,3.9,10.5,10.3c0.1,1.7-0.3,3.8-0.7,6.3l-4.1,23.1c-0.9,5.2,2.1,6.6,5.8,6.6h1.6
				c4.1,0,5.8-1.7,6.6-6.6l4.5-25.5c0.5-2.8,0.9-5.4,0.8-7.6C206.4,30,199.3,22.3,187.5,22.3L187.5,22.3z M435.3,22.3
				c-6.6,0-11.5,3.8-14.9,10.7c0.5-7.6-3.7-9.9-8-9.9c-2.2,0-3.6,0.5-3.7,0.8l-8.9,49.9c-0.9,5.2,2.5,6.6,6.3,6.6h1.6
				c3.5,0,5.3-1.7,6.2-6.6l2.9-16.7c2.3-13,7-22.1,14.8-22.1c3.8,0,6.2,1.6,7.8,3.3c0.2,0.2,6-2,5.9-9
				C445,25.2,440.7,22.3,435.3,22.3L435.3,22.3z M502.6,23.2c-5.5,0-8.5,2.6-10.2,9.6c-3.5-6.5-10.6-10.4-18.9-10.4
				c-17.7,0-30,15.7-30,33.6c0,14.7,9.1,25.6,23.3,25.6c8.7,0,15.4-3.6,19.7-10.8c-0.6,7.5,0.9,9.9,6.3,9.9c4.9,0,6.4-1.8,6.9-7.1
				c0.7-9.9,4-26,7.9-48.5C507.7,24.5,505.4,23.2,502.6,23.2L502.6,23.2z M456.2,55.5c0-11.3,6.6-22.7,18.9-22.7
				c10,0,14.2,7.3,14.2,15.4c0,10.2-6.9,22.4-19.5,22.4C461.2,70.7,456.2,65.2,456.2,55.5L456.2,55.5z M587.3,22.3
				c-9.7,0-16.1,5-20.6,12.2c-2.2-7.6-8.8-12.2-17.2-12.2c-7.3,0-13.8,3.5-18.2,10.1c0.2-7-3.9-9.2-8.1-9.2c-2,0-3.5,0.5-3.7,0.8
				l-8.8,49.9c-0.9,5.2,2,6.6,5.7,6.6h1.6c3.5,0,5.8-1.5,6.6-6.6l5.5-30.9c4-6.2,7.7-8.8,13.7-8.8c5.8,0,9.4,4.3,9.4,10.8
				c0,1.1-0.1,2.2-0.3,3.4l-4.4,25.5c-0.9,5.2,2.1,6.6,5.8,6.6h1.5c3.6,0,5.9-1.6,6.7-6.6l5.5-30.9c4-6.2,7.8-8.8,13.7-8.8
				c5.6,0,9.7,3.4,9.7,10.3c0,1.7-0.3,3.8-0.7,6.3l-4.1,23.1c-0.9,5.2,2,6.6,5.8,6.6h1.6c4.1,0,5.7-1.7,6.6-6.6l4.5-25.5
				c0.5-2.8,0.8-5.4,0.8-7.6C605.7,29.5,598.1,22.3,587.3,22.3L587.3,22.3z M246.4,22.2c-24.8,0-33.7,18.3-33.7,34.2
				c0,15.1,10.9,25.2,27.7,25.2c16.8,0,26.3-7.5,26.3-13.5c0-4-2.8-5.4-6.1-5.7c-4.4,5.7-10.5,8.4-18.8,8.4
				c-7.3,0-16.1-2.8-16.7-15.9h38.2c4.1,0,7.2-2.3,7.2-7.5c0-7.7-1.6-12.9-5.1-17.4C261.6,25.2,254.6,22.2,246.4,22.2L246.4,22.2z
				 M258.2,45.6h-31.7c3-8.1,10.1-13.1,19-13.1c4.5,0,8,1.3,10.3,3.8C257.7,38.5,258.5,41.7,258.2,45.6L258.2,45.6z M388.5,39.7
				h-22.7c-2.7,0-4,0.6-4.9,1.5c-1.4,1.5-2.1,4.8-2.1,6.2c0.1,2.3,2.1,3.7,5.8,3.7h16.1c-2.2,11.2-9.4,19-21.7,19
				c-12.9,0-21.6-8.2-22.1-22.2c-0.6-17.6,11-32,27.5-32c9.7,0,17.2,5.2,20.3,12c0.4,0.5,9.4,0.5,9.1-7.1c-0.1-2.7-1.7-6-4.6-8.7
				c-4.8-4.7-13.7-8.8-25.5-8.8c-16.6,0-29.7,9.2-36.5,22.4c0-0.1-0.1-0.1-0.1-0.1c-1.4-1.8-3.6-2.6-5.8-2.6c-3.7,0-6.1,1.2-9.7,7.4
				l-17.7,30.9l-6.7-30.9c-1.3-5.8-3.3-7.5-7-7.5c-4.3,0-7.8,3.1-7.6,3.9l12.6,49.9l-13.2,21.3c-1.4,2.3-1.5,5.4,3.5,5.4h2.7
				c5.2,0,6.8-3.1,9.4-7.4L323.5,36c-1.1,4.2-1.6,8.7-1.4,13.3c0.7,20.2,14.2,32.3,34.2,32.3c9.5,0,17-3.6,21.2-9.1
				c-0.3,5.9,2.8,8.2,7,8.2c2.3,0,4-0.8,4-1.2l5.8-32.3C395.2,42.3,393.3,39.7,388.5,39.7z"/>
		<path  fill="#DF2127" d="M632.6,75.1l13.5-63.3c1-4.6,3.7-6.9,8-6.9h3c2.2,0,3.7,0.5,4.6,1.4c0.9,0.9,1.6,2.5,2,4.7
			l9.2,40l26.4-40.2c1.5-2.4,2.9-4,4-4.7c1.1-0.8,2.7-1.2,4.7-1.2h3.5c2.1,0,3.7,0.7,4.6,2c0.6,0.9,1,2.1,1,3.3
			c0,0.5-0.1,1.1-0.2,1.8l-13.5,63.6c-0.8,3.6-2.7,5.5-5.8,5.5h-1.4c-2.9,0-4.3-1.3-4.3-3.9c0-0.6,0.1-1.3,0.2-2L704,20.3L679.3,58
			c-1.2,1.8-2.3,3-3.4,3.8c-1.1,0.7-2.7,1.1-4.8,1.1c-2.6,0-4.3-0.4-5.2-1.3c-0.9-0.9-1.5-2.3-1.9-4.2l-8.3-36.7l-11.7,54.9
			c-0.4,1.9-1,3.3-1.9,4.2c-0.9,0.9-2.2,1.3-3.9,1.3h-1.4c-1.6,0-2.8-0.5-3.5-1.5c-0.5-0.7-0.7-1.6-0.7-2.6
			C632.4,76.3,632.5,75.7,632.6,75.1z"/>
		<path fill="#DF2127" d="M709.2,96.7c0-0.9,0.3-1.7,0.8-2.6c0.5-0.9,1-1.5,1.5-1.9c0.5-0.4,0.8-0.6,1-0.5
			c1.6,1.9,3.7,2.8,6.4,2.8c2.3,0,4.7-1,7.2-3.1c2.5-2.1,5.6-6,9.5-11.7l1.6-2.4c-2.3-0.5-3.7-2.3-4.2-5.5l-3.2-29.4
			c-0.5-4-1.4-6.9-2.7-8.6c-1.4-1.7-3.3-2.6-5.9-2.7c-0.2,0-0.2-0.6,0-1.8c0.2-1.2,1-2.4,2.3-3.5c1.3-1.2,3.2-1.8,5.6-1.8
			c6.3,0,10.1,6.2,11.2,18.6l2.3,26.5l27.1-45c0.1-0.1,0.3-0.1,0.6-0.1c0.3,0,0.8,0,1.4,0.1c1.2,0.2,2.4,0.7,3.7,1.6
			c1.3,0.9,1.9,2.2,1.9,3.9c0,1.6-0.9,3.8-2.7,6.8L745.2,83c-4.9,8-9.1,13.5-12.6,16.6c-3.5,3.1-7.5,4.6-11.9,4.6
			c-4.5,0-7.7-1-9.6-3.1C709.8,99.9,709.2,98.5,709.2,96.7z"/>
		<path fill="#DF2127" d="M774.6,7.7c0-0.5,0.6-1.1,1.9-1.8c1.3-0.7,2.6-1,4-1c2.1,0,3.6,0.6,4.8,1.8
			c1.1,1.2,1.6,2.9,1.6,5.1l0.6,55.7l24.7-48.1c1.6-3.3,4.3-4.9,8.1-4.9c4.8,0,7.4,2,7.6,6.1l3.9,46.9L859.3,5
			c0-0.1,0.3-0.1,0.9-0.2c0.6,0,1.4,0,2.3,0.1c0.9,0.1,1.8,0.3,2.7,0.7c0.9,0.3,1.6,1,2.3,1.8c0.6,0.9,0.9,2,0.9,3.3
			c0,1.6-0.7,4-2.2,7l-27.9,59.4c-1.5,2.8-4.2,4.2-8.3,4.1c-4.8,0-7.3-1.9-7.5-5.6l-4-47.9L792.4,77c-1,1.7-2,2.9-3.2,3.5
			c-1.2,0.6-2.9,0.9-5.1,0.9c-2.8,0-4.7-0.4-5.9-1.3c-1.2-0.9-1.8-2.3-2-4.1L774.6,7.7z"/>
		<path  fill="#DF2127" d="M859.7,58.5c0-9.1,3-17.3,9-24.5c6-7.2,13.4-10.8,22.2-10.8c4.3,0,8.1,1,11.4,2.9
			c3.4,1.9,5.8,4.5,7.5,7.8c0.8-3.5,1.9-6,3.3-7.5c1.4-1.5,3.4-2.2,5.9-2.2c0.7,0,1.4,0.1,2.1,0.3c0.7,0.2,1.2,0.4,1.6,0.6
			c0.4,0.2,0.5,0.4,0.5,0.5l-9,42.2c-0.4,1.4-0.7,2.7-0.7,3.7c0,1,0.2,1.8,0.5,2.4c0.6,1.2,2.1,2,4.5,2.2c0.2,0,0.2,0.5,0,1.4
			c-0.2,0.9-0.9,1.9-2.1,2.8c-1.2,0.9-2.8,1.4-4.8,1.4c-6.3,0-9.4-3.1-9.4-9.4c0-0.7,0-1.4,0.1-2.2c-2.4,3.8-5.4,6.8-9.1,8.9
			c-3.7,2.1-7.6,3.1-11.9,3.1c-6.3,0-11.4-2.1-15.6-6.2C861.7,71.6,859.7,65.8,859.7,58.5z M871,57.4c0,4.6,1.3,8.2,3.9,10.9
			c2.6,2.7,5.8,4,9.8,4c5.1,0,9.6-1.8,13.5-5.4c4-3.6,6.5-8,7.6-13.2l1.9-8.7c-2.6-8.4-7.9-12.5-16-12.5c-6.1,0-11,2.6-14.9,7.7
			C872.9,45.2,871,50.9,871,57.4z"/>
		<path  fill="#DF2127" d="M915,96.7c0-0.9,0.3-1.7,0.8-2.6c0.5-0.9,1-1.5,1.5-1.9c0.5-0.4,0.8-0.6,1-0.5
			c1.6,1.9,3.7,2.8,6.4,2.8c2.3,0,4.7-1,7.2-3.1c2.5-2.1,5.6-6,9.5-11.7l1.6-2.4c-2.3-0.5-3.7-2.3-4.2-5.5l-3.2-29.4
			c-0.5-4-1.4-6.9-2.7-8.6c-1.4-1.7-3.3-2.6-5.9-2.7c-0.2,0-0.2-0.6,0-1.8c0.2-1.2,1-2.4,2.3-3.5c1.3-1.2,3.2-1.8,5.6-1.8
			c6.3,0,10.1,6.2,11.2,18.6l2.3,26.5l27.1-45c0.1-0.1,0.3-0.1,0.6-0.1c0.3,0,0.8,0,1.4,0.1c1.2,0.2,2.4,0.7,3.7,1.6
			c1.3,0.9,1.9,2.2,1.9,3.9c0,1.6-0.9,3.8-2.7,6.8L951,83c-4.9,8-9.1,13.5-12.6,16.6c-3.5,3.1-7.5,4.6-11.9,4.6
			c-4.5,0-7.7-1-9.6-3.1C915.6,99.9,915,98.5,915,96.7z"/>
</svg>
