<?xml version="1.0" encoding="utf-8"?>
<!-- Generator: Adobe Illustrator 22.0.1, SVG Export Plug-In . SVG Version: 6.00 Build 0)  -->
<svg version="1.1" id="Layer_1" xmlns="http://www.w3.org/2000/svg" xmlns:xlink="http://www.w3.org/1999/xlink" x="0px" y="0px"
	 viewBox="0 0 300 101.9" style="enable-background:new 0 0 300 101.9;" xml:space="preserve">
<style type="text/css">
	.st0{fill-rule:evenodd;clip-rule:evenodd;fill:#606060;}
</style>
<g>
	<path class="st0" d="M224.3,77.7v1.8h0.6c0.2,0,0.3,0,0.5,0c0.1,0,0.2,0,0.3-0.1c0.2-0.1,0.4-0.2,0.5-0.3c0.1-0.1,0.2-0.3,0.2-0.5
		c0-0.2-0.1-0.4-0.2-0.5c-0.1-0.1-0.2-0.2-0.4-0.3c-0.1,0-0.2,0-0.3-0.1c-0.1,0-0.3,0-0.5,0H224.3z M224.3,80v2h-0.6v-4.8h1.3
		c0.2,0,0.4,0,0.5,0c0.1,0,0.3,0,0.4,0.1c0.3,0.1,0.6,0.2,0.8,0.5c0.2,0.2,0.3,0.5,0.3,0.8c0,0.2,0,0.4-0.1,0.5
		c-0.1,0.2-0.2,0.3-0.3,0.4c-0.1,0.1-0.3,0.2-0.4,0.3c-0.2,0.1-0.3,0.1-0.5,0.2v0l1.4,2.1h-0.6l-1.5-2H224.3z M225.2,76.2
		c1.9,0,3.4,1.5,3.4,3.4c0,1.9-1.5,3.4-3.4,3.4c-1.9,0-3.4-1.5-3.4-3.4C221.7,77.7,223.3,76.2,225.2,76.2z M225.2,75.6
		c2.2,0,4,1.8,4,4c0,2.2-1.8,4-4,4c-2.2,0-4-1.8-4-4C221.1,77.4,222.9,75.6,225.2,75.6z"/>
	<path class="st0" d="M131.5,26c2.2,0,3.2,1.8,3.3,3.6c0,2-1.1,3.7-3.2,3.8c-2.2,0.1-3.3-1.6-3.3-3.6C128.2,27.9,129.1,26,131.5,26
		 M131.5,24.6c-3.1,0-5.3,1.7-5.3,5c0,3.3,2,5.1,5.3,5.1c3.3,0,5.3-1.8,5.3-5C136.8,26.4,134.7,24.6,131.5,24.6z M119.8,29.2v-3
		c1.3,0,3.1-0.3,3.1,1.4C122.9,29.3,121.2,29.2,119.8,29.2z M117.8,34.5h2v-4c1.7,0,3.7,0,4.8-1.4c1-1.5,0.6-4-2.3-4.2l-4.5,0V34.5z
		 M107.8,24.8h1.8c0,0.9-0.1,5.8,0.1,6.6c0.4,2.1,4.1,2,4.4-0.2c0.1-1.3,0.1-5,0.1-6.4h1.8c0,1.2,0.1,6.4-0.1,7.4
		c-0.6,2.7-4.4,2.8-6.2,2c-1.6-0.8-1.8-2.1-1.8-3.7V24.8z M101.1,29.1v-2.9c1.4,0,3.2-0.3,3.2,1.3C104.3,29.3,102.3,29.1,101.1,29.1
		z M99,34.5h2.1v-4.1h1.2l2.3,4.1h2.5l-2.6-4.4c1.2-0.5,2.2-1.2,2.2-2.7c0-1.9-1.6-2.5-3.2-2.6l-4.4,0V34.5z M93.8,29.2v1.3h1.6v2.1
		c-1.6,0.6-4.3,0.7-5-1.4c-0.7-2.1,0-5.2,3-5.2c1.2,0,1.9,0.4,2.5,1.4l1.1-1.4c-0.9-1-1.8-1.3-3.5-1.3c-6.4,0-6.3,6.7-3.8,8.7
		c2,1.6,5.2,1.1,7.6,0.5v-4.7H93.8z M129.7,79.4c-17.6-1.7-34.5-0.8-45,7.7c-3.3-0.5-6.6-1.1-9.9-1.6c-4.1-13.2-4.9-27.1-3.1-41.5
		c2.9-14.1,10.3-26.5,28-27.5c18.3-1.1,43.3,3.4,68.1,6c17.7,1.9,33.3,0.3,43.6-7.6c3.8,1.1,7.5,2.2,11.3,3.4
		c4.8,13.6,5.1,27,2.9,40.2c-3.1,18.7-15.2,25.4-31.6,25.6C171.4,84.2,147.9,81.1,129.7,79.4z M142,77.8c-29.2-3.8-52-3.4-65.2,5.8
		c-3.7-14.9-5.3-28.5-2.6-39.9c4.6-20,17.2-24.6,28.9-25.3c14.7-0.8,37.8,4.1,56.7,6.7c24.3,3.4,46.1,4,60.8-4.4
		c4.6,12.3,5.5,24.7,3.4,37.2c-2.1,14.4-10.7,21.7-24.5,23.4C181.5,83.5,161.5,80.3,142,77.8z"/>
	<path class="st0" d="M173.4,62h-6.2V43.8h5.2c2.7,0,3.8,0.8,3.9,2.2c0.1,2.2-1.1,3.4-3.2,3.4h-1.9l-2.4,5.3h4.8
		c2.3,0,4.5,1.7,4.2,3.7C177.4,60.6,175.7,62,173.4,62 M174.5,68h-14.7V37.7h14c4.9,0,9,1.4,9.8,6.1c0.6,3.4-0.5,5.9-3.1,7.6
		c3.9,1.7,5.5,6.4,4.1,10.7C183.2,66.5,178,68,174.5,68z M201.3,44.4c4.5,0,8.1,3.7,8.1,8.2c0,4.5-3.6,8.2-8.1,8.2
		c-4.5,0-8.1-3.7-8.1-8.2C193.2,48.1,196.9,44.4,201.3,44.4z M201.3,37.2c8.4,0,15.2,6.9,15.2,15.4c0,8.5-6.8,15.4-15.2,15.4
		c-8.4,0-15.2-6.9-15.2-15.4C186.1,44.1,192.9,37.2,201.3,37.2z M156.8,37.7V68h-7.4V48.8L144.5,68h-7.2l-4.6-18.9V68h-7.2V37.7H137
		l3.9,17l3.9-17H156.8z M114.9,37.7h7.3V68h-7.3V37.7z M101.4,62h-6.2V43.8h5.2c2.7,0,3.8,0.8,3.9,2.2c0.1,2.2-1.1,3.4-3.2,3.4h-1.9
		l-2.4,5.3h4.8c2.3,0,4.5,1.7,4.2,3.7C105.5,60.6,103.7,62,101.4,62z M102.5,68H87.8V37.7h14c4.9,0,9,1.4,9.8,6.1
		c0.6,3.4-0.5,5.9-3.1,7.6c3.9,1.7,5.5,6.4,4.1,10.7C111.2,66.5,106.1,68,102.5,68z"/>
</g>
</svg>
