<?xml version="1.0" encoding="utf-8"?>
<!-- Generator: Adobe Illustrator 22.0.1, SVG Export Plug-In . SVG Version: 6.00 Build 0)  -->
<svg version="1.1" id="Layer_1" xmlns="http://www.w3.org/2000/svg" xmlns:xlink="http://www.w3.org/1999/xlink" x="0px" y="0px"
	 viewBox="0 0 1569.9 831.7" style="enable-background:new 0 0 1569.9 831.7;" xml:space="preserve">
<style type="text/css">
	.st1{fill:#FFFFFF;}
	.st2{font-family:'Titillium Web', sans-serif;, font-weight:100;} 
	.st3{font-size:30px;}
	.st4{fill:#FF3030;}
	.st5{font-family:'Titillium Web', sans-serif; font-weight:600;}
	.st6{font-size:42px;}
</style>
<g>
	<rect x="685" y="151.2" width="879.8" height="92.9"/>
	<text transform="matrix(1 0 0 1 685.0234 172.7398)"><tspan x="0" y="0" class="st1 st2 st3">Reimagining a money transfer company and reinventing it to remain </tspan><tspan x="0" y="40" class="st1 st2 st3">relevant.</tspan></text>
</g>
<g>
	<rect x="685" y="328.4" width="880.6" height="248.2"/>
	<text transform="matrix(1 0 0 1 685.0231 349.8917)"><tspan x="0" y="0" class="st1 st2 st3">Utilizing design:success’ proprietary processes we embarked on of </tspan><tspan x="0" y="40" class="st1 st2 st3">the largest and most in-depth insight studies ever undertaken; </tspan><tspan x="0" y="80" class="st1 st2 st3">covering thousands of customers around the world uncovering </tspan><tspan x="0" y="120" class="st1 st2 st3">current perception, visions and wishes. (Re)designing and </tspan><tspan x="0" y="160" class="st1 st2 st3">(re)inventing products, services, positioning, brand and </tspan><tspan x="0" y="200" class="st1 st2 st3">communication towards consumers, agents and shareholders. </tspan></text>
</g>
<g>
	<rect x="685" y="683.8" width="879.6" height="138.4"/>
	<text transform="matrix(1 0 0 1 685.0231 705.3736)"><tspan x="0" y="0" class="st1 st2 st3">Transformative innovation from the core, - covering everything from </tspan><tspan x="0" y="40" class="st1 st2 st3">product innovations, physical transaction spaces, digital/IT solutions </tspan><tspan x="0" y="80" class="st1 st2 st3">to global brand optimization and communication.</tspan></text>
</g>
<g>
	<polygon class="st4" points="815.6,669.9 266.9,669.9 266.9,389.9 268.9,389.9 268.9,667.9 815.6,667.9 	"/>
</g>
<g>
	<path class="st1" d="M267.9,467.1C158.8,467.1,70,378.3,70,269.1S158.8,71.2,267.9,71.2c109.1,0,197.9,88.8,197.9,197.9
		S377.1,467.1,267.9,467.1z M267.9,73.2C159.9,73.2,72,161.1,72,269.1s87.9,195.9,195.9,195.9s195.9-87.9,195.9-195.9
		S376,73.2,267.9,73.2z"/>
</g>
<g>
	<path class="st1" d="M267.9,533.3c-70.6,0-136.9-27.5-186.8-77.4C31.2,406,3.8,339.7,3.8,269.1c0-70.6,27.5-136.9,77.4-186.8
		S197.4,5,267.9,5s136.9,27.5,186.8,77.4s77.4,116.2,77.4,186.8c0,70.6-27.5,136.9-77.4,186.8C404.8,505.8,338.5,533.3,267.9,533.3z
		 M267.9,7c-70,0-135.9,27.3-185.4,76.8S5.8,199.1,5.8,269.1c0,70,27.3,135.9,76.8,185.4c49.5,49.5,115.3,76.8,185.4,76.8
		s135.9-27.3,185.4-76.8c49.5-49.5,76.8-115.3,76.8-185.4c0-70-27.3-135.9-76.8-185.4S337.9,7,267.9,7z"/>
</g>
<g>
	<rect x="495.2" y="137" class="st4" width="379.5" height="2"/>
</g>
<g>
	<text transform="matrix(1 0 0 1 685.0231 122.9598)" class="st1 st5 st6">challenge</text>
</g>
<g>
	<text transform="matrix(1 0 0 1 685.0231 300.1116)" class="st1 st5 st6">solution</text>
</g>
<g>
	<g>
		<circle class="st1" cx="267.9" cy="269.1" r="145.8"/>
	</g>
	<g>
		<path class="st4" d="M267.9,123.4c-4.5,0-8.9,0.2-13.2,0.6c-2.1,0.6-4.3,1.3-6.3,2c-24,8.3-48.4,25.5-65.6,48.4
			c-14.1,18.8-24.5,40.3-24.5,65.5c0,36.3,28.5,52.4,54,52.4c25.6,0,56.4-13,81.4-36.7c0.6-0.6,1.1-1.1,1.7-1.7h-36.2
			c-7.4,0-12.5-5.6-11.4-13c0.1-0.5,0.5-2.7,0.5-3.1c1.4-7.7,8.5-11.9,16.2-11.9h69.5c7.7,0,12.8,6.3,11.3,14l-12.3,69.5
			c-1.4,7.8-6.8,14-14.5,14h-3.1c-7.4-0.1-12.3-6.6-11-14c1.4-7.7,5.8-32.5,5.8-32.5c-34.2,31.6-74.9,48.7-109.6,49
			c-22.8,0.2-76.6-9.4-76.6-76.2c0-1.1,0-2.3,0.1-3.4c-1.2,7.4-1.8,15.1-1.8,22.8c0,80.5,65.3,145.8,145.8,145.8
			c80.5,0,145.8-65.3,145.8-145.8S348.4,123.4,267.9,123.4z"/>
	</g>
</g>
<g>
	<rect x="460.2" y="312.5" class="st4" width="384.5" height="2"/>
</g>
<g>
	<text transform="matrix(1 0 0 1 685.0231 655.5936)" class="st1 st5 st6">result</text>
</g>
</svg>
