<svg version="1.1" id="Layer_1" xmlns="http://www.w3.org/2000/svg" xmlns:xlink="http://www.w3.org/1999/xlink" x="0px" y="0px"
	 viewBox="0 0 984 187.6" style="enable-background:new 0 0 984 187.6;" xml:space="preserve">
	<circle fill="#FFFFFF" cx="99.3" cy="93.6" r="92.4"/>
		<path fill="#FFFFFF" id="txt" d="M323,63.5h-5.2c-5.1,0-7.3,1.5-10.8,7.1l-28.1,45.5l-11.6-45c-1.4-5.4-2.9-7.6-8.7-7.6H254
			c-5.7,0-9.4,3.4-10.5,9.4l-13,73.3c-0.9,5.5,1.5,8.4,6.3,8.4h2c5,0,7.2-2.5,8.2-7.9l10.5-59.3l10.1,39.7c0.8,4,1.6,6.7,9.2,6.7
			c6.4,0,7.9-2.2,10.1-6l24.8-40.8l-10.5,59.3c-0.9,5.6,1.5,8.4,6.2,8.4h2.1c5,0,7.2-2.6,8.1-7.9l13-73.5
			C331.7,67.3,328.9,63.5,323,63.5 M367.9,85c-23.2,0-37.4,18.9-36.7,39.7c0.7,18.9,13.7,31,32.9,31c23.7,0,37.4-19,36.7-39.8
			C400.2,98.2,388.1,85,367.9,85 M364.3,142.8c-10.9,0-17.8-7.9-18.2-18.7c-0.5-13.9,8.6-26.2,21.7-26.2c10,0,17.9,7.9,18.3,18.8
			C386.5,131.4,377.3,142.8,364.3,142.8 M452.6,85c-9.7,0-17.3,4.8-22.3,12.8c0.5-9.1-4.5-11.8-9.7-11.8c-2.4,0-4.3,0.6-4.4,0.9
			l-10.5,59.6c-1,6.2,2.4,7.9,6.9,7.9h1.9c4.9,0,6.9-2,7.9-7.9l6.3-35.8c4.5-7.9,9.5-11.7,17.2-11.7c7.8,0,12.3,4.7,12.6,12.4
			c0.1,2-0.3,4.5-0.8,7.5l-4.9,27.6c-1,6.2,2.5,7.9,6.9,7.9h1.9c4.9,0,6.9-2,7.9-7.9l5.4-30.4c0.6-3.4,1-6.4,0.9-9.1
			C475.2,94.1,466.7,85,452.6,85 M748.1,85c-7.9,0-13.7,4.5-17.8,12.8c0.6-9.1-4.4-11.8-9.5-11.8c-2.6,0-4.3,0.6-4.4,0.9l-10.6,59.6
			c-1,6.2,3,7.9,7.5,7.9h1.9c4.2,0,6.3-2,7.3-7.9l3.5-19.9c2.7-15.5,8.4-26.4,17.7-26.4c4.5,0,7.3,1.9,9.3,4c0.2,0.2,7.2-2.4,7-10.7
			C759.6,88.4,754.5,85,748.1,85 M828.2,86.1c-6.5,0-10.1,3.1-12.2,11.4c-4.2-7.8-12.7-12.5-22.6-12.5c-21.1,0-35.7,18.8-35.7,40.1
			c0,17.6,10.8,30.6,27.8,30.6c10.3,0,18.4-4.3,23.5-12.9c-0.7,9,1,11.8,7.5,11.8c5.8,0,7.7-2.1,8.3-8.5c0.8-11.8,4.8-31,9.4-58
			C834.3,87.6,831.6,86.1,828.2,86.1 M773,124.7c0-13.5,7.9-27.1,22.6-27.1c11.9,0,16.9,8.8,16.9,18.4c0,12.1-8.2,26.7-23.3,26.7
			C778.9,142.8,773,136.2,773,124.7 M929.2,85c-11.5,0-19.2,5.9-24.5,14.6c-2.7-9.1-10.5-14.6-20.5-14.6c-8.7,0-16.4,4.2-21.6,12
			c0.2-8.4-4.7-11-9.7-11c-2.4,0-4.2,0.6-4.4,0.9l-10.5,59.6c-1.1,6.2,2.4,7.9,6.9,7.9h1.9c4.2,0,6.9-1.7,7.9-7.9l6.5-37
			c4.8-7.4,9.2-10.5,16.3-10.5c6.9,0,11.2,5.1,11.2,12.9c0,1.3-0.1,2.7-0.3,4.1l-5.2,30.4c-1,6.2,2.6,7.9,6.9,7.9h1.8
			c4.3,0,7-1.9,8-7.9l6.5-37c4.8-7.4,9.3-10.5,16.3-10.5c6.6,0,11.5,4.1,11.5,12.4c0,2-0.4,4.5-0.8,7.5l-4.9,27.6
			c-1,6.2,2.4,7.9,6.9,7.9h1.9c4.9,0,6.8-2,7.9-7.9l5.4-30.4c0.6-3.4,0.9-6.4,0.9-9.1C951.2,93.6,942.1,85,929.2,85 M522.8,84.9
			c-29.6,0-40.2,21.8-40.2,40.8c0,18.1,13,30.1,33.1,30.1c20,0,31.3-9,31.3-16.1c0-4.8-3.4-6.4-7.2-6.8c-5.2,6.8-12.6,10-22.5,10
			c-8.7,0-19.2-3.4-19.9-19h45.5c4.9,0,8.6-2.8,8.6-9c0-9.2-1.9-15.4-6-20.8C541,88.4,532.6,84.9,522.8,84.9 M536.9,112.8h-37.8
			c3.6-9.7,12-15.6,22.7-15.6c5.4,0,9.6,1.5,12.2,4.5C536.3,104.4,537.2,108.1,536.9,112.8 M692.3,105.8h-27c-3.2,0-4.8,0.7-5.8,1.8
			c-1.6,1.7-2.5,5.7-2.5,7.5c0.1,2.8,2.6,4.4,6.9,4.4h19.2c-2.7,13.4-11.2,22.8-25.8,22.8c-15.4,0-25.7-9.8-26.3-26.5
			c-0.7-21,13.2-38.3,32.8-38.3c11.5,0,20.5,6.2,24.2,14.3c0.5,0.6,11.2,0.6,10.8-8.5c-0.1-3.3-2-7.1-5.5-10.4
			c-5.7-5.6-16.3-10.5-30.4-10.5c-19.8,0-35.4,11-43.5,26.7c0-0.1-0.1-0.1-0.1-0.1c-1.6-2.1-4.3-3.2-6.9-3.2
			c-4.4,0-7.2,1.4-11.5,8.9l-21.1,37l-7.9-36.9c-1.5-6.9-4-9-8.4-9c-5.1,0-9.3,3.7-9.1,4.7l15,59.6l-15.7,25.4
			c-1.6,2.8-1.8,6.4,4.2,6.4h3.3c6.2,0,8.1-3.7,11.2-8.9l42.4-71.7c-1.3,5-1.9,10.4-1.6,15.9c0.8,24.1,17,38.6,40.7,38.6
			c11.3,0,20.3-4.3,25.3-10.8c-0.4,7,3.4,9.8,8.4,9.8c2.8,0,4.8-0.9,4.8-1.4l6.9-38.6C700.2,108.8,698,105.8,692.3,105.8"/>
		<path fill="#FFFFFF" id="txt1" d="M968.9,146.8c0.5,0.9,0.8,1.2,1.6,1.2c0.1,0,0.1,1.1-1.1,1.1c-0.7,0-1.2-0.3-2-1.7l-1.4-2.5h-1.3l-0.7,3.5
			c-0.1,0.5-0.3,0.8-0.8,0.8h-0.2c-0.5,0-0.7-0.3-0.6-0.8l1.7-9c0.1-0.6,0.5-0.9,1.1-0.9h2.6c2.4,0,3.7,1,3.7,2.8
			c0,2.2-1.4,3.6-3.8,3.6L968.9,146.8z M967.3,143.5c1.6,0,2.5-0.8,2.4-2.2c0-1-0.8-1.6-2.1-1.6h-2l-0.7,3.8H967.3z"/>
		<path fill="#FFFFFF" id="txt2" d="M966.9,135.4c4.9,0,8.8,4,8.8,8.8c0,4.9-3.9,8.8-8.8,8.8c-4.9,0-8.8-4-8.8-8.8
			C958,139.4,962,135.4,966.9,135.4 M966.9,134c-5.7,0-10.3,4.6-10.3,10.3c0,5.7,4.6,10.3,10.3,10.3c5.7,0,10.3-4.6,10.3-10.3
			C977.1,138.6,972.5,134,966.9,134"/>
	<path fill="#FF3030" d="M99.3,1.2c-2.8,0-5.6,0.1-8.4,0.4c-1.4,0.4-2.7,0.8-4,1.2C71.7,8.1,56.2,19,45.3,33.5
		C36.4,45.4,29.8,59.1,29.8,75c0,23,18.1,33.2,34.2,33.2c16.2,0,35.7-8.2,51.6-23.3c0.4-0.4,0.7-0.7,1.1-1.1h-23
		c-4.7,0-7.9-3.5-7.2-8.2c0-0.3,0.3-1.7,0.3-2c0.9-4.9,5.4-7.5,10.3-7.5h44.1c4.9,0,8.1,4,7.2,8.9l-7.8,44.1
		c-0.9,4.9-4.3,8.9-9.2,8.9h-1.9c-4.7,0-7.8-4.2-6.9-8.9c0.9-4.9,3.7-20.6,3.7-20.6c-21.7,20.1-47.5,30.9-69.5,31.1
		c-14.5,0.1-48.6-6-48.6-48.3c0-0.7,0-1.4,0.1-2.1c-0.7,4.7-1.1,9.5-1.1,14.5c0,51.1,41.4,92.4,92.4,92.4
		c51.1,0,92.4-41.4,92.4-92.4S150.4,1.2,99.3,1.2z"/>
</svg>
